<?xml version="1.0" encoding="utf-8"?>
<!-- Generator: Adobe Illustrator 24.0.0, SVG Export Plug-In . SVG Version: 6.00 Build 0)  -->
<svg version="1.1" id="Capa_1" xmlns="http://www.w3.org/2000/svg" xmlns:xlink="http://www.w3.org/1999/xlink" x="0px" y="0px"
	 viewBox="0 0 512 512" style="enable-background:new 0 0 512 512;" xml:space="preserve">
<style type="text/css">
	.st0{fill:#00AA47;}
</style>
<g>
	<g>
		<path class="st0" d="M234.7,47.4H465c4.1,0,7.5-3.4,7.5-7.5s-3.4-7.5-7.5-7.5H234.7c-4.1,0-7.5,3.4-7.5,7.5
			C227.3,44.1,230.6,47.4,234.7,47.4L234.7,47.4z"/>
		<path class="st0" d="M465,69.6H234.7c-4.1,0-7.5,3.4-7.5,7.5s3.4,7.5,7.5,7.5H465c4.1,0,7.5-3.4,7.5-7.5S469.1,69.6,465,69.6z"/>
		<path class="st0" d="M234.7,121.7H391c4.1,0,7.5-3.4,7.5-7.5s-3.4-7.5-7.5-7.5H234.7c-4.1,0-7.5,3.4-7.5,7.5
			C227.3,118.4,230.6,121.7,234.7,121.7z"/>
		<path class="st0" d="M465,211.4H234.7c-4.1,0-7.5,3.4-7.5,7.5s3.4,7.5,7.5,7.5H465c4.1,0,7.5-3.4,7.5-7.5S469.1,211.4,465,211.4z"
			/>
		<path class="st0" d="M465,248.5H234.7c-4.1,0-7.5,3.4-7.5,7.5s3.4,7.5,7.5,7.5H465c4.1,0,7.5-3.4,7.5-7.5S469.1,248.5,465,248.5z"
			/>
		<path class="st0" d="M234.7,300.6H391c4.1,0,7.5-3.4,7.5-7.5s-3.4-7.5-7.5-7.5H234.7c-4.1,0-7.5,3.4-7.5,7.5
			S230.6,300.6,234.7,300.6z"/>
		<path class="st0" d="M198.8,369c-4.2-3.7-9.6-5.6-15.2-5.2c-5.6,0.4-10.7,2.9-14.5,7.1l-3.8,4.3c-13.3-10.8-30.2-17.3-48.6-17.3
			c-42.5,0-77.1,34.6-77.1,77.1s34.5,77,77,77s77.1-34.6,77.1-77.1c0-8.4-1.4-16.4-3.9-24l10.8-12.3c3.7-4.2,5.6-9.6,5.2-15.2
			C205.5,377.8,203,372.7,198.8,369L198.8,369z M116.6,497c-34.2,0-62.1-27.9-62.1-62.1s27.9-62.1,62.1-62.1
			c14.6,0,28.1,5.1,38.7,13.6l-31.7,36.1l-11.4-13.3c-3.7-4.3-8.8-6.9-14.4-7.3s-11,1.3-15.3,5c-8.8,7.6-9.8,20.9-2.3,29.7
			l27.2,31.7c4,4.6,9.7,7.3,15.8,7.4c0.1,0,0.1,0,0.1,0c6,0,11.8-2.6,15.8-7.1l38.6-43.9c0.6,3.4,0.9,6.8,0.9,10.3
			C178.7,469.2,150.9,497,116.6,497L116.6,497z M189.4,388.8L128,458.6c-1.1,1.3-2.8,2.1-4.5,2.1c0,0,0,0-0.1,0
			c-1.8,0-3.4-0.8-4.6-2.1l-27.2-31.7c-2.2-2.5-1.9-6.4,0.7-8.6c1.1-1,2.5-1.5,3.9-1.5c0.2,0,0.3,0,0.5,0c1.6,0.1,3.1,0.9,4.1,2.1
			l17,19.8c1.4,1.6,3.5,2.6,5.6,2.6c2.2,0,4.2-0.9,5.7-2.5l51.1-58.1c1.1-1.2,2.6-1.9,4.2-2c1.6-0.1,3.2,0.4,4.4,1.5s1.9,2.6,2,4.2
			C191,386,190.5,387.6,189.4,388.8z"/>
		<path class="st0" d="M465,390.3H234.7c-4.1,0-7.5,3.4-7.5,7.5s3.4,7.5,7.5,7.5H465c4.1,0,7.5-3.4,7.5-7.5S469.1,390.3,465,390.3z"
			/>
		<path class="st0" d="M465,427.4H234.7c-4.1,0-7.5,3.4-7.5,7.5s3.4,7.5,7.5,7.5H465c4.1,0,7.5-3.4,7.5-7.5
			C472.4,430.8,469.1,427.4,465,427.4z"/>
		<path class="st0" d="M391,464.6H234.7c-4.1,0-7.5,3.4-7.5,7.5s3.4,7.5,7.5,7.5H391c4.1,0,7.5-3.4,7.5-7.5S395.1,464.6,391,464.6z"
			/>
		<path class="st0" d="M198.8,11.1c-4.2-3.7-9.6-5.6-15.2-5.2c-5.6,0.4-10.7,2.9-14.5,7.1l-3.8,4.3C152,6.5,135.1,0,116.6,0
			C97.5,0,79.2,7,65.1,19.8c-3.1,2.8-3.3,7.5-0.6,10.6c2.8,3.1,7.5,3.3,10.6,0.6c11.4-10.4,26.2-16,41.5-16
			c14.6,0,28.1,5.1,38.7,13.6l-31.7,36.1l-11.4-13.3c-3.7-4.3-8.8-6.9-14.4-7.3c-5.6-0.4-11,1.3-15.3,5c-8.8,7.6-9.8,20.9-2.3,29.7
			l27.2,31.7c4,4.6,9.7,7.3,15.8,7.4c0.1,0,0.1,0,0.1,0c6,0,11.8-2.6,15.8-7.1l38.6-43.9c0.6,3.4,0.9,6.8,0.9,10.3
			c0,34.2-27.9,62.1-62.1,62.1s-62.1-27.9-62.1-62.1c0-7.3,1.3-14.5,3.8-21.4c1.4-3.9-0.6-8.2-4.5-9.6c-3.9-1.4-8.2,0.6-9.6,4.5
			c-3.1,8.5-4.7,17.4-4.7,26.5c0,42.5,34.6,77.1,77.1,77.1s77.1-34.6,77.1-77.1c0-8.4-1.4-16.4-3.8-24l10.8-12.3
			c3.7-4.2,5.6-9.6,5.2-15.2C205.5,20,203,14.8,198.8,11.1z M189.4,30.9L128,100.8c-1.1,1.3-2.8,2.1-4.5,2.1c0,0,0,0-0.1,0
			c-1.8,0-3.4-0.8-4.6-2.1L91.6,69c-2.2-2.5-1.9-6.4,0.7-8.6c1.1-1,2.5-1.5,3.9-1.5c0.2,0,0.3,0,0.5,0c1.6,0.1,3.1,0.9,4.1,2.1
			l17,19.8c1.4,1.6,3.5,2.6,5.6,2.6c2.2,0,4.2-0.9,5.7-2.5l51.1-58.1c1.1-1.2,2.6-1.9,4.2-2c1.6-0.1,3.2,0.4,4.4,1.5s1.9,2.6,2,4.2
			C191,28.2,190.5,29.7,189.4,30.9z"/>
		<path class="st0" d="M198.8,190c-4.2-3.7-9.6-5.6-15.2-5.2c-5.6,0.4-10.7,2.9-14.5,7.1l-3.8,4.3c-13.3-10.8-30.2-17.4-48.6-17.4
			c-42.5,0-77.1,34.6-77.1,77.1S74.2,333,116.7,333s77.1-34.6,77.1-77.1c0-8.4-1.4-16.4-3.8-24l10.8-12.3c3.7-4.2,5.6-9.6,5.2-15.2
			C205.5,198.9,203,193.8,198.8,190L198.8,190z M189.4,209.9l-31.9,36.2c-2.7,3.1-2.4,7.8,0.7,10.6c3.1,2.7,7.8,2.4,10.6-0.7
			l9.1-10.3c0.6,3.4,0.9,6.8,0.9,10.3c0,34.2-27.9,62.1-62.1,62.1S54.5,290.2,54.5,256s27.9-62.1,62.1-62.1
			c14.6,0,28.1,5.1,38.7,13.6l-31.7,36.1l-11.4-13.3c-3.7-4.3-8.8-6.9-14.4-7.3c-5.6-0.4-11,1.3-15.3,5c-8.8,7.6-9.8,20.9-2.3,29.7
			l27.2,31.7c4,4.6,9.7,7.3,15.8,7.4c0.1,0,0.1,0,0.1,0c6,0,11.8-2.6,15.8-7.1l7-7.9c2.7-3.1,2.4-7.8-0.7-10.6
			c-3.1-2.7-7.8-2.4-10.6,0.7l-7,7.9c-1.1,1.3-2.8,2.1-4.5,2.1c0,0,0,0-0.1,0c-1.8,0-3.4-0.8-4.6-2.1l-27-31.8
			c-2.2-2.5-1.9-6.4,0.7-8.6c1.2-1.1,2.8-1.6,4.4-1.4c1.6,0.1,3.1,0.9,4.1,2.1l17,19.8c1.4,1.6,3.5,2.6,5.6,2.6l0,0
			c2.2,0,4.2-0.9,5.6-2.5l51.1-58.1c1.1-1.2,2.6-1.9,4.2-2c1.6-0.1,3.2,0.4,4.4,1.5s1.9,2.6,2,4.2
			C191,207.1,190.5,208.6,189.4,209.9L189.4,209.9z"/>
	</g>
</g>
</svg>
