<?xml version="1.0" encoding="iso-8859-1"?>
<!-- Generator: Adobe Illustrator 19.0.0, SVG Export Plug-In . SVG Version: 6.00 Build 0)  -->
<svg version="1.1" id="Capa_1" xmlns="http://www.w3.org/2000/svg" xmlns:xlink="http://www.w3.org/1999/xlink" x="0px" y="0px"
	 viewBox="0 0 480.049 480.049" style="enable-background:new 0 0 480.049 480.049;" xml:space="preserve">
<g>
	<g>
		<g>
			<path d="M477.906,112.047C466.316,47.191,409.887-0.017,344.004,0.025c-50.67,0.06-97.111,28.269-120.52,73.208
				c-43.474-43.94-114.337-44.317-158.277-0.844c-21.266,21.041-33.224,49.72-33.203,79.636v16c0,4.418,3.582,8,8,8
				c0.328-0.031,0.654-0.082,0.976-0.152c3.754,32.444,19.837,62.203,44.92,83.12c0.688,0.568,1.408,1.056,2.104,1.6v29.672
				l-66.528,22.176c-2.978,0.99-5.103,3.631-5.432,6.752l-16,152c-0.459,4.394,2.73,8.329,7.125,8.789
				c0.278,0.029,0.556,0.044,0.835,0.043h272c4.418,0,8-3.582,8-8c0-0.267-0.013-0.534-0.04-0.8l-16-152
				c-0.329-3.121-2.454-5.762-5.432-6.752l-66.528-22.208v-29.672c0.696-0.544,1.416-1.032,2.104-1.6
				c13.795-11.533,24.997-25.851,32.872-42.016c20.6,27.768,51.002,46.647,85.024,52.8v18.248h-16c-4.418,0-8,3.582-8,8v32
				c0,4.418,3.582,8,8,8v104c0,22.091,17.909,40,40,40c22.091,0,40-17.909,40-40v-104c4.418,0,8-3.582,8-8v-32c0-4.418-3.582-8-8-8
				h-16v-18.248C441.909,256.57,491.114,185.952,477.906,112.047z M88.004,464.025H16.892l14.528-138.04l56.584-18.864V464.025z
				 M48.004,152.025C47.896,99.116,90.7,56.138,143.609,56.03c27.974-0.057,54.576,12.116,72.819,33.323
				c-7.418,19.757-9.992,41.004-7.504,61.96c-19.025-3.421-32.881-19.958-32.92-39.288c0.004-4.418-3.575-8.003-7.993-8.007
				c-0.586,0-1.17,0.063-1.743,0.191l-4.8,1.072c-40.374,8.92-78.81,25.045-113.464,47.6V152.025z M104.004,464.025V357.793
				l28.352-9.456l-20.072,73.6c-0.512,1.898-0.313,3.918,0.56,5.68l18.216,36.408H104.004z M104.004,340.921v-15.952l19.144,9.6
				L104.004,340.921z M128.524,423.225l15.48-56.8l15.48,56.8l-15.48,30.912L128.524,423.225z M184.004,464.025h-27.056
				l18.256-36.424c0.873-1.762,1.072-3.782,0.56-5.68l-20.072-73.6l28.312,9.472V464.025z M184.004,340.921l-19.144-6.4
				l19.144-9.552V340.921z M184.004,307.081l-40,20l-40-20v-36.416c25.207,12.48,54.793,12.48,80,0V307.081z M256.588,325.985
				l14.528,138.04h-71.112V307.121L256.588,325.985z M191.86,246.697c-27.718,23.112-67.994,23.112-95.712,0
				c-23.887-19.96-38.315-49.018-39.776-80.112c31.959-20.885,67.32-36.029,104.488-44.752
				c4.532,25.187,25.535,44.113,51.056,46.008c2.73,11.532,6.967,22.654,12.6,33.08C217.719,218.718,206.476,234.477,191.86,246.697
				z M368.004,440.025c0,13.255-10.745,24-24,24s-24-10.745-24-24v-104h48V440.025z M376.004,304.025v16h-64v-16H376.004z
				 M336.004,288.025v-16.408c2.664,0.16,5.296,0.408,8,0.408c2.704,0,5.336-0.248,8-0.408v16.408H336.004z M344.004,256.025
				c-66.274,0-120-53.726-120-120s53.726-120,120-120s120,53.726,120,120C463.929,202.268,410.247,255.95,344.004,256.025z"/>
			<path d="M344.004,32.025c-57.438,0-104,46.562-104,104s46.562,104,104,104s104-46.562,104-104
				C447.938,78.614,401.414,32.091,344.004,32.025z M344.004,224.025c-48.601,0-88-39.399-88-88s39.399-88,88-88
				c48.601,0,88,39.399,88,88C431.947,184.602,392.581,223.967,344.004,224.025z"/>
			<path d="M397.66,82.369l-11.312,11.312c23.322,23.412,23.322,61.276,0,84.688l11.312,11.312
				C427.228,160.02,427.228,112.029,397.66,82.369z"/>
			<rect x="368.005" y="187.082" transform="matrix(-0.4472 -0.8944 0.8944 -0.4472 368.8277 620)" width="16" height="17.888"/>
		</g>
	</g>
</g>
<g>
</g>
<g>
</g>
<g>
</g>
<g>
</g>
<g>
</g>
<g>
</g>
<g>
</g>
<g>
</g>
<g>
</g>
<g>
</g>
<g>
</g>
<g>
</g>
<g>
</g>
<g>
</g>
<g>
</g>
</svg>
