<?xml version="1.0" encoding="utf-8"?>
<!-- Generator: Adobe Illustrator 24.0.0, SVG Export Plug-In . SVG Version: 6.00 Build 0)  -->
<svg version="1.1" id="Capa_1" xmlns="http://www.w3.org/2000/svg" xmlns:xlink="http://www.w3.org/1999/xlink" x="0px" y="0px"
	 viewBox="0 0 480 480" style="enable-background:new 0 0 480 480;" xml:space="preserve">
<style type="text/css">
	.st0{fill:#00AA47;}
</style>
<g>
	<g>
		<g>
			<path class="st0" d="M477.9,112C466.3,47.2,409.9,0,344,0c-50.7,0.1-97.1,28.3-120.5,73.2C180,29.3,109.1,28.9,65.2,72.4
				C43.9,93.4,32,122.1,32,152v16c0,4.4,3.6,8,8,8c0.3,0,0.7-0.1,1-0.2c3.8,32.4,19.8,62.2,44.9,83.1c0.7,0.6,1.4,1.1,2.1,1.6v29.7
				l-66.5,22.2c-3,1-5.1,3.6-5.4,6.8l-16,152c-0.5,4.4,2.7,8.3,7.1,8.8c0.3,0,0.6,0,0.8,0h272c4.4,0,8-3.6,8-8c0-0.3,0-0.5,0-0.8
				l-16-152c-0.3-3.1-2.5-5.8-5.4-6.8L200,290.3v-29.7c0.7-0.5,1.4-1,2.1-1.6c13.8-11.5,25-25.9,32.9-42c20.6,27.8,51,46.6,85,52.8
				V288h-16c-4.4,0-8,3.6-8,8v32c0,4.4,3.6,8,8,8v104c0,22.1,17.9,40,40,40s40-17.9,40-40V336c4.4,0,8-3.6,8-8v-32c0-4.4-3.6-8-8-8
				h-16v-18.2C441.9,256.6,491.1,186,477.9,112z M88,464H16.9l14.5-138L88,307.1V464z M48,152c-0.1-52.9,42.7-95.9,95.6-96
				c28-0.1,54.6,12.1,72.8,33.3c-7.4,19.8-10,41-7.5,62c-19-3.4-32.9-20-32.9-39.3c0-4.4-3.6-8-8-8c-0.6,0-1.2,0.1-1.7,0.2l-4.8,1.1
				c-40.4,8.9-78.8,25-113.5,47.6C48,152.9,48,152,48,152z M104,464V357.8l28.4-9.5l-20.1,73.6c-0.5,1.9-0.3,3.9,0.6,5.7l18.2,36.4
				H104z M104,340.9v-16l19.1,9.6L104,340.9z M128.5,423.2l15.5-56.8l15.5,56.8L144,454.1L128.5,423.2z M184,464h-27.1l18.3-36.4
				c0.9-1.8,1.1-3.8,0.6-5.7l-20.1-73.6l28.3,9.5L184,464L184,464z M184,340.9l-19.1-6.4L184,325V340.9z M184,307.1l-40,20l-40-20
				v-36.4c25.2,12.5,54.8,12.5,80,0V307.1z M256.6,326l14.5,138H200V307.1L256.6,326z M191.9,246.7c-27.7,23.1-68,23.1-95.7,0
				c-23.9-20-38.3-49-39.8-80.1c32-20.9,67.3-36,104.5-44.8c4.5,25.2,25.5,44.1,51.1,46c2.7,11.5,7,22.7,12.6,33.1
				C217.7,218.7,206.5,234.5,191.9,246.7z M368,440c0,13.3-10.7,24-24,24s-24-10.7-24-24V336h48V440z M376,304v16h-64v-16H376z
				 M336,288v-16.4c2.7,0.2,5.3,0.4,8,0.4s5.3-0.2,8-0.4V288H336z M344,256c-66.3,0-120-53.7-120-120S277.7,16,344,16
				s120,53.7,120,120C463.9,202.3,410.2,255.9,344,256z"/>
			<path class="st0" d="M344,32c-57.4,0-104,46.6-104,104s46.6,104,104,104s104-46.6,104-104C447.9,78.6,401.4,32.1,344,32z
				 M344,224c-48.6,0-88-39.4-88-88s39.4-88,88-88s88,39.4,88,88C431.9,184.6,392.6,224,344,224z"/>
			<path class="st0" d="M397.7,82.4l-11.3,11.3c23.3,23.4,23.3,61.3,0,84.7l11.3,11.3C427.2,160,427.2,112,397.7,82.4z"/>
			
				<rect x="367.1" y="188" transform="matrix(0.8944 -0.4472 0.4472 0.8944 -47.9752 188.8504)" class="st0" width="17.9" height="16"/>
		</g>
	</g>
</g>
</svg>
