<?xml version="1.0" encoding="utf-8"?>
<!-- Generator: Adobe Illustrator 24.0.0, SVG Export Plug-In . SVG Version: 6.00 Build 0)  -->
<svg version="1.1" id="Layer_1" xmlns="http://www.w3.org/2000/svg" xmlns:xlink="http://www.w3.org/1999/xlink" x="0px" y="0px"
	 viewBox="0 0 460 460" style="enable-background:new 0 0 460 460;" xml:space="preserve">
<style type="text/css">
	.st0{fill:#00AA47;}
</style>
<path class="st0" d="M8.5,460h333.9c4.4,0,7.5-4.1,7.5-8.5V278.9l106.9-106.9c3.1-3.1,3.2-8.2,0.1-11.3L414.5,118
	c-3.2-3.1-8.3-3.1-11.5,0l-53,52.7V89.4c0.1-2.1-0.7-4.1-2.1-5.7L267,2.6c-1.4-1.6-3.4-2.5-5.5-2.6H8.5C4.1,0,1,4.1,1,8.5v443
	C1,455.9,4.1,460,8.5,460z M263.9,286.6l24.6,24.6l-37,12.4L263.9,286.6z M303.4,303.4l-31.6-31.6l101.5-101.3l31.4,31.4
	L303.4,303.4z M408.9,135l31.3,31.3l-24.2,24.3l-31.4-31.4L408.9,135z M270,27.8L323.1,81H270V27.8z M17,16h237v73.4
	c-0.1,2,0.7,4,2.1,5.4c1.4,1.4,3.4,2.2,5.4,2.1H334v89.6l-79.5,79.5c-0.8,0.8-1.5,1.8-1.8,2.9L241.4,303H68.7c-4.4,0-8,3.6-8,8
	s3.6,8,8,8h167.4l-4.8,14.6c-1,2.8-0.2,6,1.9,8.1c0.6,0.6,1.2,1.3,1.9,1.3H68.7c-4.4,0-8,3.6-8,8s3.6,8,8,8h213c4.4,0,8-3.6,8-8
	s-3.6-8-8-8H243l62.9-20.8c1.1-0.4,2.1-1,2.9-1.8l25.2-25.4V444H17V16z"/>
<path class="st0" d="M281.7,383h-213c-4.4,0-8,3.6-8,8s3.6,8,8,8h213c4.4,0,8-3.6,8-8S286.1,383,281.7,383z"/>
<path class="st0" d="M68.7,279h113c4.4,0,8-3.6,8-8s-3.6-8-8-8h-113c-4.4,0-8,3.6-8,8S64.3,279,68.7,279z"/>
</svg>
