<?xml version="1.0" encoding="utf-8"?>
<!-- Generator: Adobe Illustrator 24.0.0, SVG Export Plug-In . SVG Version: 6.00 Build 0)  -->
<svg version="1.1" id="Layer_1" xmlns="http://www.w3.org/2000/svg" xmlns:xlink="http://www.w3.org/1999/xlink" x="0px" y="0px"
	 viewBox="0 0 512 512" style="enable-background:new 0 0 512 512;" xml:space="preserve">
<style type="text/css">
	.st0{fill:#00AA47;}
</style>
<g id="Mechanic">
	<rect x="152" y="152" class="st0" width="16" height="16"/>
	<rect x="232" y="152" class="st0" width="16" height="16"/>
	<path class="st0" d="M232,200h-16c0,8.8-7.2,16-16,16s-16-7.2-16-16h-16c0,17.7,14.3,32,32,32S232,217.7,232,200z"/>
	<path class="st0" d="M458.4,96c-3.1-3.1-8.2-3.1-11.3,0c-1,1-1.7,2.2-2.1,3.6l-11,41l-26.3,5.4l-20.1-17.8l11-40.9
		c1.1-4.3-1.4-8.7-5.7-9.8c-1.3-0.4-2.8-0.4-4.1,0c-38.4,10.2-61.2,49.6-50.9,88c2.9,10.7,8.1,20.6,15.4,28.9l-32.8,122.5
		c-4.6-2.4-9.4-4.4-14.3-6L240,290.1v-27.8c29.5-15,48-45.3,48-78.4v-8c13.2,0,24-10.6,24-23.8c0-8.9-4.9-17.1-12.8-21.2
		c0.5-0.7,0.9-1.4,1.3-2.1l0.8-1.6c5.9-11.8,1.2-26.1-10.6-32c-0.9-0.4-1.8-0.8-2.7-1.2V53.1c-0.1-11.4-8.1-21.2-19.3-23.5l-54.6-11
		c-9.3-1.8-18.9-1.8-28.2,0l-54.6,11c-11.2,2.3-19.2,12.1-19.3,23.5V94c-12.4,4.4-18.9,18-14.5,30.5c0.3,0.9,0.7,1.9,1.2,2.8
		l0.8,1.6c0.4,0.7,0.8,1.4,1.2,2.1C89,137,84.5,151.5,90.7,163.2c4.2,7.9,12.4,12.9,21.3,12.8v8c0,33,18.6,63.3,48,78.3v27.8
		l-66.2,20.7c-36.8,11.3-61.9,45.4-61.8,84V488c0,4.4,3.6,8,8,8h320c4.4,0,8-3.6,8-8v-16h-16v8h-40v-24h-16v24H104v-88H88v88H48
		v-85.2c-0.1-31.5,20.4-59.4,50.5-68.7l21.5-6.7V368c0,22.1,17.9,40,40,40h80c11.2,0,21.8-4.7,29.3-13c0.2,18.8,7.8,36.7,21.1,50
		c3.1,3.1,8.2,3.1,11.3,0c1-1,1.7-2.2,2.1-3.6l11-41l26.3-5.4l20.1,17.8l-11,41c-1.1,4.3,1.4,8.7,5.7,9.8c0.7,0.2,1.4,0.3,2.1,0.3
		c0.7,0,1.4-0.1,2-0.3c38.4-10.2,61.2-49.6,50.9-88c-2.9-10.7-8.1-20.6-15.5-28.9L430.7,215c37.6-12.7,57.8-53.5,45.1-91.1
		C472.2,113.4,466.3,103.8,458.4,96z M309.8,329.4c-12.3,6-22.7,15.4-29.8,27.1v-37.2l21.4,6.7C304.3,327,307.1,328.2,309.8,329.4z
		 M240.5,307l-6.2,32.2l-21.4-12.8l21.3-21.3L240.5,307z M122.4,126c-3.5,0.6-7-1.1-8.6-4.3l-0.8-1.6c-2-4-0.4-8.8,3.6-10.7
		c0.7-0.4,1.5-0.6,2.4-0.8l70.1-10.8c7.3-1.1,14.6-1.1,21.9,0l70.1,10.8c4.4,0.7,7.4,4.8,6.7,9.1c-0.1,0.8-0.4,1.6-0.7,2.4l-0.8,1.6
		c-1.6,3.2-5.1,4.9-8.6,4.3l-64.8-11.8c-8.5-1.6-17.2-1.6-25.7,0L122.4,126z M288,160v-16c4.4,0,8,3.6,8,8S292.4,160,288,160z
		 M272,53.1V91l-20.6-3.2l8.7-43.6l5.4,1.1C269.3,46,272,49.3,272,53.1z M188.9,34.3c7.3-1.4,14.8-1.4,22,0l33.5,6.7l-8.9,44.3
		L213.4,82c-8.9-1.4-17.9-1.4-26.8,0l-22.2,3.4L155.6,41L188.9,34.3z M134.5,45.3l5.4-1.1l8.7,43.6L128,91V53.1
		C128,49.3,130.7,46,134.5,45.3z M104,152c0-4.4,3.6-8,8-8v16C107.6,160,104,156.4,104,152z M128,184v-42.8l62-11.3
		c6.6-1.2,13.4-1.2,20,0l62,11.3V184c0,39.8-32.2,72-72,72S128,223.8,128,184z M200,272c8.1,0,16.2-1.1,24-3.4v24.1l-24,24l-24-24
		v-24.1C183.8,270.8,191.9,272,200,272z M165.8,305.1l21.3,21.3l-21.4,12.8l-6.2-32.2L165.8,305.1z M240,392h-80
		c-13.3,0-24-10.7-24-24v-53.6l8.2-2.6l8,41.7c0.8,4.3,5,7.2,9.4,6.4c0.9-0.2,1.8-0.5,2.6-1l35.8-21.5l35.9,21.5
		c3.8,2.3,8.7,1.1,11-2.7c0.5-0.8,0.8-1.7,1-2.6l8-41.7l8.1,2.6V368C264,381.3,253.3,392,240,392z M461.6,161.4
		c-5.2,19.3-20.3,34.4-39.6,39.6c-2.8,0.7-4.9,2.9-5.6,5.7l-37.6,140.3c-0.7,2.8,0,5.7,2.1,7.7c21.9,21.8,21.9,57.2,0.1,79.1
		c-3.3,3.3-7.1,6.3-11.2,8.7l8.1-30.1c0.8-2.9-0.1-6-2.4-8.1l-26.8-23.7c-1.5-1.3-3.3-2-5.3-2c-0.5,0-1.1,0.1-1.6,0.2l-35,7.2
		c-3,0.6-5.3,2.8-6.1,5.8l-8.1,30.1c-15.2-26.9-5.7-61,21.2-76.2c4.1-2.3,8.5-4.1,13.1-5.3c2.8-0.7,4.9-2.9,5.6-5.7L370,194.2
		c0.7-2.8,0-5.7-2.1-7.7c-21.9-21.8-21.9-57.2-0.1-79.1c3.3-3.3,7.1-6.2,11.1-8.6l-8.1,30.1c-0.8,2.9,0.1,6,2.4,8l26.8,23.7
		c1.9,1.7,4.4,2.4,6.9,1.9l35.1-7.2c3-0.6,5.3-2.8,6.1-5.8l8.1-30.1C463.5,132.1,465.4,147.2,461.6,161.4z"/>
</g>
</svg>
