<?xml version="1.0" encoding="utf-8"?>
<!-- Generator: Adobe Illustrator 24.0.0, SVG Export Plug-In . SVG Version: 6.00 Build 0)  -->
<svg version="1.1" id="Capa_1" xmlns="http://www.w3.org/2000/svg" xmlns:xlink="http://www.w3.org/1999/xlink" x="0px" y="0px"
	 viewBox="0 0 512 512" style="enable-background:new 0 0 512 512;" xml:space="preserve">
<style type="text/css">
	.st0{fill:#00AA47;}
</style>
<g>
	<g>
		<path class="st0" d="M512,87.8c0-0.1,0-0.1,0-0.2c0-0.2,0-0.4,0-0.7c0-0.1,0-0.2,0-0.2c0-0.2-0.1-0.4-0.1-0.6c0-0.1,0-0.2-0.1-0.2
			c-0.1-0.2-0.1-0.4-0.2-0.6c0,0,0-0.1,0-0.1l-20.3-52.1c-2.1-5.2-7-8.6-12.7-8.6h-37c-4,0-7.3,3.3-7.3,7.3s3.3,7.3,7.3,7.3h36.3
			L494,80.5H340.9l-9.6-41.4h56.5c4,0,7.3-3.3,7.3-7.3s-3.3-7.3-7.3-7.3h-65.7h-73.7H92.1c-5.6,0-10.6,3.4-12.7,8.6L59.1,85.2
			c0,0,0,0.1,0,0.1c-0.1,0.2-0.1,0.4-0.2,0.6c0,0.1,0,0.2-0.1,0.2c0,0.2-0.1,0.4-0.1,0.6c0,0.1,0,0.2,0,0.2c0,0.2,0,0.4,0,0.7
			c0,0.1,0,0.1,0,0.2c0,0,0,0,0,0v107.4c0,4,3.3,7.3,7.3,7.3s7.3-3.3,7.3-7.3V95.1h155v111.1c0,4.3,2.6,8.3,6.5,10.1
			c1.5,0.7,3,1,4.5,1c2.7,0,5.3-1,7.3-2.8l38.7-34.3l38.7,34.3c3.3,2.9,7.9,3.6,11.9,1.8c4-1.8,6.5-5.7,6.5-10.1V95.1h155v327.9
			c0,5.2-4.3,9.5-9.5,9.5H353.8c0-0.1,0-0.2,0-0.2c0-0.7,0-1.3-0.1-2c12.6,3.3,26-3.1,31.1-15.5c2.7-6.5,2.6-13.7-0.1-20.1
			c-0.3-0.6-0.5-1.2-0.8-1.8c-0.1-0.1-0.1-0.2-0.2-0.3c-0.3-0.6-0.6-1.1-0.9-1.6c-0.1-0.1-0.1-0.2-0.2-0.3c-0.3-0.5-0.7-1.1-1.1-1.6
			c0,0,0,0,0,0c-0.4-0.5-0.8-1-1.2-1.5c-0.1-0.1-0.2-0.2-0.2-0.3c-0.4-0.5-0.8-0.9-1.3-1.3c-0.1-0.1-0.2-0.2-0.3-0.2
			c-0.5-0.4-0.9-0.9-1.4-1.3c0,0,0,0-0.1,0c-0.5-0.4-1-0.8-1.5-1.1c-0.1-0.1-0.2-0.1-0.3-0.2c-0.5-0.3-1-0.7-1.6-1
			c0,0-0.1-0.1-0.1-0.1c3.1-2.7,5.5-6.1,7.1-10c2.7-6.5,2.6-13.7-0.1-20.1c-2.4-5.7-6.6-10.2-11.9-13.1c-0.8-0.4-1.6-0.8-2.4-1.1
			l-113.8-46.4l53-16.4c12.6-3.9,19.7-17.3,15.8-30c-1.4-4.7-4.3-8.7-8-11.6c-5.5-4.3-12.9-6.3-20.2-4.7c0,0-0.1,0-0.1,0
			c-0.4,0.1-41,9.2-83.4,17.5c-1.9,0.4-3.7,0.7-5.5,1.1c-1.4,0.3-2.9,0.6-4.3,0.8c-0.4,0.1-0.8,0.2-1.2,0.2
			c-2.5,0.5-4.9,0.9-7.2,1.4c-0.9,0.2-1.9,0.3-2.8,0.5c-53.3,9.8-68.2,10-72.4,9.4c0,0,0,0,0,0c-0.1,0-0.1,0-0.2,0c0,0-0.1,0-0.1,0
			c0,0-0.1,0-0.1,0c-0.3,0-0.5-0.1-0.6-0.1l-1.2-0.5l1.5-3.7c1.5-3.6,1.4-7.6-0.1-11.1c-0.4-0.9-0.8-1.7-1.4-2.5
			c-1.6-2.4-3.9-4.2-6.6-5.3l-39.3-16c-3.6-1.5-7.6-1.4-11.1,0.1c-3.6,1.5-6.4,4.3-7.8,7.9l-48,117.8c-3,7.4,0.6,15.9,8,19l39.3,16
			c1.8,0.7,3.6,1.1,5.5,1.1c5.7,0,11.2-3.4,13.5-9.1l0.4-0.9l9.1,3.7c0,0,0,0,0,0c8.7,3.5,16.6,8.6,23.5,14.8
			c1.3,1.1,2.5,2.3,3.7,3.5s2.3,2.5,3.4,3.8c0.6,0.6,1.1,1.3,1.6,2c10.1,12.5,23.3,22.4,38.1,28.5l10.2,4.2H82.7
			c-5.2,0-9.5-4.3-9.5-9.5v-18.5c0-4-3.3-7.3-7.3-7.3s-7.3,3.3-7.3,7.3v18.5c0,13.3,10.8,24.1,24.1,24.1h110.5l94.2,38.4
			c3.2,1.3,6.6,1.9,9.9,1.9c10.4,0,20.2-6.2,24.4-16.4c1.7-4.2,2.3-8.5,1.8-12.7c4.9,0.7,10,0.1,14.6-1.9c4.7-2,8.6-5.2,11.3-9.3
			h138.5c13.3,0,24.1-10.8,24.1-24.1L512,87.8C512,87.8,512,87.8,512,87.8z M254.3,39.1h62l9.6,41.4h-81.2L254.3,39.1z M229.7,80.5
			H76.6l16.2-41.4h146.5L229.7,80.5z M327.8,198.4L327.8,198.4l-35.2-31.1c-2.1-1.9-4.7-2.8-7.3-2.8c-2.6,0-5.2,0.9-7.3,2.8
			l-35.2,31.1V95.1h85V198.4z M53.8,367.5l-39.1-16l48-117.6l39.1,16L53.8,367.5z M345.9,411.6l-8.4-3.4c0,0,0,0,0,0c0,0,0,0,0,0
			c0,0,0,0,0,0l-87.4-35.6c-3.7-1.5-8,0.3-9.5,4c-1.5,3.7,0.3,8,4,9.5l87.4,35.6c0.4,0.1,0.7,0.3,1.1,0.5c0.1,0.1,0.2,0.1,0.3,0.2
			c0.2,0.1,0.5,0.3,0.7,0.4c0.1,0.1,0.2,0.2,0.3,0.2c0.2,0.1,0.4,0.3,0.6,0.4c0.1,0.1,0.2,0.2,0.3,0.3c0.2,0.2,0.3,0.3,0.5,0.5
			c0.1,0.1,0.2,0.2,0.3,0.3c0.1,0.2,0.3,0.3,0.4,0.5c0.1,0.1,0.2,0.3,0.3,0.4c0.1,0.2,0.3,0.3,0.4,0.5c0.1,0.1,0.2,0.3,0.3,0.4
			c0.1,0.2,0.2,0.3,0.3,0.5c0.1,0.2,0.2,0.3,0.2,0.5c0.1,0.2,0.2,0.3,0.3,0.5c0.1,0.2,0.1,0.3,0.2,0.5c0.1,0.2,0.1,0.3,0.2,0.5
			c0.1,0.2,0.1,0.4,0.2,0.5c0,0.2,0.1,0.4,0.1,0.5c0,0.2,0.1,0.4,0.1,0.5s0.1,0.4,0.1,0.5s0,0.4,0,0.6c0,0.2,0,0.4,0,0.6
			c0,0.2,0,0.4,0,0.6c0,0.2,0,0.4,0,0.6c0,0.2,0,0.4-0.1,0.5c0,0.2,0,0.4-0.1,0.6c0,0.2-0.1,0.4-0.1,0.5c0,0.2-0.1,0.4-0.1,0.6
			c0,0.2-0.1,0.3-0.2,0.5c-0.1,0.2-0.1,0.4-0.2,0.6c-0.1,0.1-0.1,0.3-0.2,0.4c0,0,0,0.1,0,0.1c-1.1,2.6-3.3,4.7-6,5.9
			c-3,1.3-6.5,1.4-9.5,0.1l-15.5-6.3c-0.1,0-0.1,0-0.2-0.1c-0.1,0-0.1-0.1-0.2-0.1l-71.1-29c-3.7-1.5-8,0.3-9.5,4
			c-1.5,3.7,0.3,8,4,9.5l71.1,29c0.1,0,0.2,0.1,0.2,0.1c0.1,0,0.1,0.1,0.2,0.1c6,2.4,8.8,9.3,6.4,15.2c-2.4,6-9.3,8.8-15.2,6.4
			l-95.5-38.9c0,0,0,0,0,0l-44.7-18.2c-7.9-3.2-15.2-7.7-21.6-13.1c-3.9-3.3-7.4-6.9-10.6-10.9c-3.1-3.9-6.6-7.6-10.3-10.9
			c-8.2-7.4-17.6-13.4-27.8-17.5c0,0,0,0,0,0l-9.1-3.7l18.1-44.3l17.1-41.8l1.3,0.5c1.2,0.5,2.9,1.2,7.4,1.3
			c5.7,0.3,15.1-0.3,31.9-2.7c11.5-1.6,25.5-4,41.9-7c0.4-0.1,0.8-0.1,1.2-0.2c0.8-0.1,1.5-0.3,2.3-0.4c0.6-0.1,1.2-0.2,1.8-0.3
			c0.7-0.1,1.4-0.3,2.1-0.4c0.7-0.1,1.5-0.3,2.3-0.4c0.6-0.1,1.2-0.2,1.8-0.3c0.9-0.2,1.9-0.4,2.8-0.5c0.5-0.1,1-0.2,1.5-0.3
			c1.5-0.3,2.9-0.6,4.4-0.9c42.3-8.2,83.1-17.4,84.9-17.8c0.2,0,0.4-0.1,0.5-0.1c4.7-0.7,9.3,2,10.6,6.4c0.5,1.5,0.5,3.1,0.2,4.6
			c-0.7,3.3-3,6.1-6.4,7.1l-72.5,22.4c-3,0.9-5,3.6-5.1,6.7c-0.1,3.1,1.7,5.9,4.5,7.1l132.7,54.1c2.9,1.2,5.1,3.4,6.4,6.3
			c1.2,2.9,1.2,6.1,0,8.9c-1.2,2.9-3.4,5.1-6.3,6.4c-1.4,0.6-3,0.9-4.5,0.9c0,0,0,0-0.1,0c-0.4,0-0.7,0-1.1,0c-0.1,0-0.2,0-0.3,0
			c-0.3,0-0.5-0.1-0.8-0.1c-0.2,0-0.3-0.1-0.5-0.1c-0.2,0-0.4-0.1-0.6-0.1c-0.2-0.1-0.4-0.1-0.6-0.2c-0.2-0.1-0.3-0.1-0.5-0.2
			l-87.4-35.6c-3.7-1.5-8,0.3-9.5,4c-1.5,3.7,0.3,8,4,9.5l106,43.2c0.7,0.3,1.4,0.7,2,1.1c1.9,1.3,3.4,3.1,4.3,5.2
			c1.1,2.5,1.2,5.3,0.4,7.8c-0.1,0.4-0.2,0.7-0.4,1.1c-0.2,0.4-0.3,0.7-0.5,1.1c-0.4,0.8-1,1.5-1.5,2.2c-0.4,0.4-0.8,0.8-1.2,1.2
			c-0.1,0.1-0.1,0.1-0.2,0.2c-2.7,2.2-6.2,3.1-9.7,2.4c-0.7-0.1-1.4-0.3-2.1-0.6L345.9,411.6z"/>
	</g>
</g>
</svg>
