<?xml version="1.0" encoding="utf-8"?>
<!-- Generator: Adobe Illustrator 24.0.0, SVG Export Plug-In . SVG Version: 6.00 Build 0)  -->
<svg version="1.1" id="Layer_1" xmlns="http://www.w3.org/2000/svg" xmlns:xlink="http://www.w3.org/1999/xlink" x="0px" y="0px"
	 viewBox="0 0 512 512" style="enable-background:new 0 0 512 512;" xml:space="preserve">
<style type="text/css">
	.st0{fill:#00AA47;}
</style>
<g>
	<path class="st0" d="M496,112H351.7c-4.4-52.8-50.8-92.1-103.6-87.7c-46.7,3.9-83.8,41-87.7,87.7H128c-4.4,0-8,3.6-8,8v132.5
		L92.7,280H16c-4.4,0-8,3.6-8,8v136c0,4.4,3.6,8,8,8h76.7l13.7,13.7c1.5,1.5,3.5,2.3,5.7,2.3h8v40c0,4.4,3.6,8,8,8h368
		c4.4,0,8-3.6,8-8V120C504,115.6,500.4,112,496,112z M360,128v138.2L316,241c-2.5-1.4-5.5-1.4-7.9,0l-44,25.2v-50.5
		c46.7-4,83.7-41,87.7-87.7H360z M256,40c44.2,0,80,35.8,80,80s-35.8,80-80,80s-80-35.8-80-80C176.1,75.8,211.8,40.1,256,40z
		 M24,296h72c2.1,0,4.2-0.8,5.7-2.3l18.3-18.4v17.2L92.7,320H24V296z M115.3,432l-13.7-13.7c-1.5-1.5-3.5-2.3-5.7-2.3H24v-80h72
		c2.1,0,4.2-0.8,5.7-2.3l53.3-54c3.1-3.1,8.2-3.1,11.3,0c3.1,3.1,3.1,8.2,0,11.3c0,0,0,0,0,0c-0.1,0.1-0.1,0.1-0.1,0.2l-14.6,15.3
		c-3,3.2-2.9,8.3,0.3,11.3c1.5,1.4,3.5,2.2,5.5,2.2H248c4.4,0,8,3.6,8,8s-3.6,8-8,8h-64c-4.4,0-8,3.6-8,8s3.6,8,8,8h96
		c4.4,0,8,3.6,8,8c0,0,0,0,0,0c0,4.4-3.6,8-8,8h-96c-4.4,0-8,3.6-8,8s3.6,8,8,8h64c4.4,0,8,3.6,8,8s-3.6,8-8,8h-64c-4.4,0-8,3.6-8,8
		s3.6,8,8,8h48c4.4,0,8,3.6,8,8s-3.6,8-8,8H115.3z M488,480H136v-32h96c13.3,0,24-10.7,24-24c0-3-0.6-6-1.7-8.9
		c12.8-3.5,20.3-16.7,16.8-29.5c-0.2-0.6-0.3-1.1-0.5-1.7h9.4c13.3,0,24-10.7,24-24s-10.7-24-24-24h-9.4
		c4.4-12.5-2.1-26.2-14.6-30.6c-2.6-0.9-5.3-1.4-8-1.4h-72l1.7-1.8c9.3-9.5,9.1-24.7-0.4-33.9c-9.4-9.2-24.4-9.1-33.7,0.1l-7.6,7.8
		V128h24.3c4,46.7,41,83.7,87.7,87.7V280c0,4.4,3.6,8,8,8c1.4,0,2.8-0.4,4-1.1l52-29.7l52,29.7c3.8,2.2,8.7,0.9,10.9-3
		c0.7-1.2,1.1-2.6,1.1-4V128h112V480z"/>
	<path class="st0" d="M360,392c-4.4,0-8,3.6-8,8v56c0,4.4,3.6,8,8,8h104c4.4,0,8-3.6,8-8v-56c0-4.4-3.6-8-8-8H360z M456,448h-88v-40
		h88V448z"/>
	<path class="st0" d="M211.2,134.4l32,24c3.3,2.5,8.1,2,10.8-1.1l56-64c2.9-3.3,2.6-8.4-0.8-11.3c-3.3-2.9-8.4-2.6-11.3,0.8l0,0
		l-51.1,58.4l-26.1-19.5c-3.5-2.7-8.5-1.9-11.2,1.6C206.9,126.7,207.7,131.7,211.2,134.4z"/>
</g>
</svg>
