<?xml version="1.0" encoding="utf-8"?>
<!-- Generator: Adobe Illustrator 24.0.0, SVG Export Plug-In . SVG Version: 6.00 Build 0)  -->
<svg version="1.1" id="Layer_1" xmlns="http://www.w3.org/2000/svg" xmlns:xlink="http://www.w3.org/1999/xlink" x="0px" y="0px"
	 viewBox="0 0 4705.4 826.7" style="enable-background:new 0 0 4705.4 826.7;" xml:space="preserve">
<style type="text/css">
	.st0{fill:#00AA47;}
	.st1{fill:#808080;}
</style>
<g>
	<path class="st0" d="M565.5,112H421.2c-4.4-52.8-50.8-92.1-103.6-87.7c-46.7,3.9-83.8,41-87.7,87.7h-32.4c-4.4,0-8,3.6-8,8v132.5
		L162.2,280H85.5c-4.4,0-8,3.6-8,8v136c0,4.4,3.6,8,8,8h76.7l13.7,13.7c1.5,1.5,3.5,2.3,5.7,2.3h8v40c0,4.4,3.6,8,8,8h368
		c4.4,0,8-3.6,8-8V120C573.5,115.6,569.9,112,565.5,112z M429.5,128v138.2l-44-25.2c-2.5-1.4-5.5-1.4-7.9,0l-44,25.2v-50.5
		c46.7-4,83.7-41,87.7-87.7L429.5,128L429.5,128z M325.5,40c44.2,0,80,35.8,80,80s-35.8,80-80,80s-80-35.8-80-80
		C245.6,75.8,281.3,40.1,325.5,40z M93.5,296h72c2.1,0,4.2-0.8,5.7-2.3l18.3-18.4v17.2L162.2,320H93.5V296z M184.8,432l-13.7-13.7
		c-1.5-1.5-3.5-2.3-5.7-2.3H93.5v-80h72c2.1,0,4.2-0.8,5.7-2.3l53.3-54c3.1-3.1,8.2-3.1,11.3,0s3.1,8.2,0,11.3l0,0
		c-0.1,0.1-0.1,0.1-0.1,0.2l-14.6,15.3c-3,3.2-2.9,8.3,0.3,11.3c1.5,1.4,3.5,2.2,5.5,2.2h90.6c4.4,0,8,3.6,8,8s-3.6,8-8,8h-64
		c-4.4,0-8,3.6-8,8s3.6,8,8,8h96c4.4,0,8,3.6,8,8l0,0c0,4.4-3.6,8-8,8h-96c-4.4,0-8,3.6-8,8s3.6,8,8,8h64c4.4,0,8,3.6,8,8
		s-3.6,8-8,8h-64c-4.4,0-8,3.6-8,8s3.6,8,8,8h48c4.4,0,8,3.6,8,8s-3.6,8-8,8H184.8z M557.5,480h-352v-32h96c13.3,0,24-10.7,24-24
		c0-3-0.6-6-1.7-8.9c12.8-3.5,20.3-16.7,16.8-29.5c-0.2-0.6-0.3-1.1-0.5-1.7h9.4c13.3,0,24-10.7,24-24s-10.7-24-24-24h-9.4
		c4.4-12.5-2.1-26.2-14.6-30.6c-2.6-0.9-5.3-1.4-8-1.4h-72l1.7-1.8c9.3-9.5,9.1-24.7-0.4-33.9c-9.4-9.2-24.4-9.1-33.7,0.1l-7.6,7.8
		V128h24.3c4,46.7,41,83.7,87.7,87.7V280c0,4.4,3.6,8,8,8c1.4,0,2.8-0.4,4-1.1l52-29.7l52,29.7c3.8,2.2,8.7,0.9,10.9-3
		c0.7-1.2,1.1-2.6,1.1-4V128h112V480z"/>
	<path class="st0" d="M429.5,392c-4.4,0-8,3.6-8,8v56c0,4.4,3.6,8,8,8h104c4.4,0,8-3.6,8-8v-56c0-4.4-3.6-8-8-8H429.5z M525.5,448
		h-88v-40h88V448z"/>
	<path class="st0" d="M280.7,134.4l32,24c3.3,2.5,8.1,2,10.8-1.1l56-64c2.9-3.3,2.6-8.4-0.8-11.3c-3.3-2.9-8.4-2.6-11.3,0.8l0,0
		l-51.1,58.4l-26.1-19.5c-3.5-2.7-8.5-1.9-11.2,1.6C276.4,126.7,277.2,131.7,280.7,134.4z"/>
</g>
<g>
	<g>
		<g>
			<path class="st1" d="M1404,123c-11.5-64.8-68-112-133.9-112c-50.7,0.1-97.1,28.3-120.5,73.2c-43.5-43.9-114.3-44.3-158.3-0.8
				c-21.3,21-33.2,49.7-33.2,79.6v16c0,4.4,3.6,8,8,8c0.3,0,0.7-0.1,1-0.2c3.8,32.4,19.8,62.2,44.9,83.1c0.7,0.6,1.4,1.1,2.1,1.6
				v29.7l-66.5,22.2c-3,1-5.1,3.6-5.4,6.8l-16,152c-0.5,4.4,2.7,8.3,7.1,8.8c0.3,0,0.6,0,0.8,0h272c4.4,0,8-3.6,8-8
				c0-0.3,0-0.5,0-0.8l-16-152c-0.3-3.1-2.5-5.8-5.4-6.8l-66.5-22.2v-29.7c0.7-0.5,1.4-1,2.1-1.6c13.8-11.5,25-25.9,32.9-42
				c20.6,27.8,51,46.6,85,52.8V299h-16c-4.4,0-8,3.6-8,8v32c0,4.4,3.6,8,8,8v104c0,22.1,17.9,40,40,40s40-17.9,40-40V347
				c4.4,0,8-3.6,8-8v-32c0-4.4-3.6-8-8-8h-16v-18.2C1368.1,267.5,1417.3,196.9,1404,123z M1014.1,475H943l14.5-138l56.6-18.9V475z
				 M974.1,163c-0.1-52.9,42.7-95.9,95.6-96c28-0.1,54.6,12.1,72.8,33.3c-7.4,19.8-10,41-7.5,62c-19-3.4-32.9-20-32.9-39.3
				c0-4.4-3.6-8-8-8c-0.6,0-1.2,0.1-1.7,0.2l-4.8,1.1c-40.4,8.9-78.8,25-113.5,47.6V163z M1030.1,475V368.8l28.4-9.5l-20.1,73.6
				c-0.5,1.9-0.3,3.9,0.6,5.7l18.2,36.4H1030.1z M1030.1,351.9v-16l19.1,9.6L1030.1,351.9z M1054.7,434.2l15.5-56.8l15.5,56.8
				l-15.5,30.9L1054.7,434.2z M1110.1,475H1083l18.3-36.4c0.9-1.8,1.1-3.8,0.6-5.7l-20.1-73.6l28.3,9.5L1110.1,475L1110.1,475z
				 M1110.1,351.9l-19.1-6.4l19.1-9.6V351.9z M1110.1,318.1l-40,20l-40-20v-36.4c25.2,12.5,54.8,12.5,80,0V318.1z M1182.7,337
				l14.5,138h-71.1V318.1L1182.7,337z M1118,257.7c-27.7,23.1-68,23.1-95.7,0c-23.9-20-38.3-49-39.8-80.1
				c32-20.9,67.3-36,104.5-44.8c4.5,25.2,25.5,44.1,51.1,46c2.7,11.5,7,22.7,12.6,33.1C1143.9,229.7,1132.6,245.4,1118,257.7z
				 M1294.1,451c0,13.3-10.7,24-24,24s-24-10.7-24-24V347h48V451z M1302.1,315v16h-64v-16H1302.1z M1262.1,299v-16.4
				c2.7,0.2,5.3,0.4,8,0.4s5.3-0.2,8-0.4V299H1262.1z M1270.1,267c-66.3,0-120-53.7-120-120s53.7-120,120-120s120,53.7,120,120
				C1390.1,213.2,1336.4,266.9,1270.1,267z"/>
			<path class="st1" d="M1270.1,43c-57.4,0-104,46.6-104,104s46.6,104,104,104s104-46.6,104-104S1327.6,43.1,1270.1,43z M1270.1,235
				c-48.6,0-88-39.4-88-88s39.4-88,88-88s88,39.4,88,88S1318.7,234.9,1270.1,235z"/>
			<path class="st1" d="M1323.8,93.3l-11.3,11.4c23.3,23.4,23.3,61.3,0,84.7l11.3,11.3C1353.4,171,1353.4,123,1323.8,93.3z"/>
			
				<rect x="1293.1" y="199" transform="matrix(0.8944 -0.4472 0.4472 0.8944 44.8844 604.1545)" class="st1" width="17.9" height="16"/>
		</g>
	</g>
</g>
<path class="st1" d="M1733.2,484h333.9c4.4,0,7.5-4.1,7.5-8.5V302.8l106.9-106.9c3.1-3.1,3.2-8.2,0.1-11.3l-42.5-42.6
	c-3.2-3.1-8.3-3.1-11.5,0l-53,52.7v-81.2c0.1-2.1-0.7-4.1-2.1-5.7l-80.8-81.2c-1.4-1.6-3.4-2.5-5.5-2.6h-253c-4.4,0-7.5,4.1-7.5,8.5
	v443C1725.7,479.9,1728.8,484,1733.2,484z M1988.6,310.6l24.6,24.6l-37,12.4L1988.6,310.6z M2028,327.4l-31.6-31.6l101.5-101.3
	l31.4,31.4L2028,327.4z M2133.5,159l31.3,31.3l-24.2,24.3l-31.4-31.4L2133.5,159z M1994.7,51.8l53.1,53.2h-53.1V51.8z M1741.7,40
	h237v73.4c-0.1,2,0.7,4,2.1,5.4s3.4,2.2,5.4,2.1h72.5v89.6l-79.5,79.5c-0.8,0.8-1.5,1.8-1.8,2.9l-11.3,33.9h-172.7c-4.4,0-8,3.6-8,8
	s3.6,8,8,8h167.4l-4.8,14.6c-1,2.8-0.2,6,1.9,8.1c0.6,0.6,1.2,1.3,1.9,1.3h-166.4c-4.4,0-8,3.6-8,8s3.6,8,8,8h213c4.4,0,8-3.6,8-8
	s-3.6-8-8-8h-38.7l62.9-20.8c1.1-0.4,2.1-1,2.9-1.8l25.2-25.4V468h-317V40z"/>
<path class="st1" d="M2006.4,407h-213c-4.4,0-8,3.6-8,8s3.6,8,8,8h213c4.4,0,8-3.6,8-8S2010.8,407,2006.4,407z"/>
<path class="st1" d="M1793.4,303h113c4.4,0,8-3.6,8-8s-3.6-8-8-8h-113c-4.4,0-8,3.6-8,8S1788.9,303,1793.4,303z"/>
<g>
	<g>
		<g>
			<path class="st1" d="M2685.2,168c-35.3,0-64,28.7-64,64s28.7,64,64,64s64-28.7,64-64S2720.5,168,2685.2,168z M2685.2,280
				c-26.5,0-48-21.5-48-48s21.5-48,48-48s48,21.5,48,48S2711.7,280,2685.2,280z"/>
			<path class="st1" d="M2933.2,408h-104v-16h-16v32h-16V232c0-10.9-1.6-21.4-4.5-31.3l68.5-59.2V8h-80v100.2l-36.4,29.2
				c-17.3-10.9-37.7-17.3-59.6-17.3s-42.3,6.4-59.6,17.3l-36.4-29.2V8h-80v133.5L2577,200h-3.8c-52.9,0-96,43.1-96,96v12.9l16,8v6.1
				l-16,8v25.9l16,8v6.1l-16,8v25.9l16,8v6.1l-16,8v25.9l16,8v6.1l-16,8v29h16v-19.1l16-8V451l-16-8v-6.1l16-8V403l-16-8v-6.1l16-8
				V355l-16-8v-6.1l16-8V307l-16-8v-3c0-44.1,35.9-80,80-80h1.3c-0.8,5.2-1.3,10.6-1.3,16v32c-17.6,0-32,14.4-32,32v3.1l-16,8V333
				l16,8v6.1l-16,8V381l16,8v6.1l-16,8V429l16,8v6.1l-16,8V477l16,8v19h16v-28.9l-16-8V461l16-8v-25.9l-16-8V413l16-8v-25.9l-16-8
				V365l16-8v-25.9l-16-8V317l16-8v-13c0-8.8,7.2-16,16-16v224h16V289.4c19.6,32.6,55.2,54.6,96,54.6s76.4-22,96-54.6V424h-132.7
				l-8.9-8.9l-42.4,10.6v44.5l42.5,10.6l8.9-8.9h132.7v32h16v-32h16v32h16v-16h104c22.1,0,40-17.9,40-40S2955.2,408,2933.2,408z
				 M2797.2,24h48v16h-48V24z M2792,120h21.2v-16h-16V88h16V72h-16V56h48v78.2l-58.6,50.6c-6.8-14.5-16.5-27.3-28.5-37.6L2792,120z
				 M2525.2,24h48v16h-48V24z M2583.8,184.8l-58.6-50.6V56h48v16h-16v16h16v16h-16v16h21.2l33.9,27.1
				C2600.3,157.5,2590.6,170.3,2583.8,184.8z M2685.2,328c-52.9,0-96-43.1-96-96s43.1-96,96-96s96,43.1,96,96S2738.1,328,2685.2,328
				z M2813.2,456h-171.3l-7.1,7.1l-21.6-5.4v-19.5l21.5-5.4l7.1,7.1h171.3V456H2813.2z M2941.2,470.5V456h-16v16h-16v-16h-16v16h-16
				v-16h-16v16h-32v-16h16v-16h-16v-16h32v16h16v-16h16v16h16v-16h16v16h16v-14.5c9.3,3.3,16,12.1,16,22.5
				S2950.5,467.2,2941.2,470.5z"/>
			<path class="st1" d="M2813.2,280c0,44.1,35.9,80,80,80s80-35.9,80-80s-35.9-80-80-80S2813.2,235.9,2813.2,280z M2893.2,216
				c35.3,0,64,28.7,64,64s-28.7,64-64,64s-64-28.7-64-64S2857.9,216,2893.2,216z"/>
			<path class="st1" d="M2893.2,328c26.5,0,48-21.5,48-48s-21.5-48-48-48s-48,21.5-48,48S2866.7,328,2893.2,328z M2862.3,272
				c2.9-11.2,11.7-20,22.9-22.9V264h16v-14.9c11.2,2.9,20,11.7,22.9,22.9h-14.9v16h14.9c-2.9,11.2-11.7,20-22.9,22.9V296h-16v14.9
				c-11.2-2.9-20-11.7-22.9-22.9h14.9v-16H2862.3z"/>
		</g>
	</g>
</g>
<g id="Mechanic">
	<rect x="3374.1" y="149.3" class="st1" width="16" height="16"/>
	<rect x="3454.1" y="149.3" class="st1" width="16" height="16"/>
	<path class="st1" d="M3454.1,197.3h-16c0,8.8-7.2,16-16,16s-16-7.2-16-16h-16c0,17.7,14.3,32,32,32S3454.1,215,3454.1,197.3z"/>
	<path class="st1" d="M3680.5,93.3c-3.1-3.1-8.2-3.1-11.3,0c-1,1-1.7,2.2-2.1,3.6l-11,41l-26.3,5.4l-20.1-17.8l11-40.9
		c1.1-4.3-1.4-8.7-5.7-9.8c-1.3-0.4-2.8-0.4-4.1,0c-38.4,10.2-61.2,49.6-50.9,88c2.9,10.7,8.1,20.6,15.4,28.9l-32.8,122.5
		c-4.6-2.4-9.4-4.4-14.3-6l-66.2-20.7v-27.8c29.5-15,48-45.3,48-78.4v-8c13.2,0,24-10.6,24-23.8c0-8.9-4.9-17.1-12.8-21.2
		c0.5-0.7,0.9-1.4,1.3-2.1l0.8-1.6c5.9-11.8,1.2-26.1-10.6-32c-0.9-0.4-1.8-0.8-2.7-1.2V50.5c-0.1-11.4-8.1-21.2-19.3-23.5l-54.6-11
		c-9.3-1.8-18.9-1.8-28.2,0l-54.6,11c-11.2,2.3-19.2,12.1-19.3,23.5v40.9c-12.4,4.4-18.9,18-14.5,30.5c0.3,0.9,0.7,1.9,1.2,2.8
		l0.8,1.6c0.4,0.7,0.8,1.4,1.2,2.1c-11.7,6.1-16.2,20.6-10.1,32.3c4.2,7.9,12.4,12.9,21.3,12.8v8c0,33,18.6,63.3,48,78.3v27.8
		l-66.2,20.7c-36.8,11.3-61.9,45.4-61.8,84v93.2c0,4.4,3.6,8,8,8h320c4.4,0,8-3.6,8-8v-16h-16v8h-40v-24h-16v24h-192v-88h-16v88h-40
		v-85.2c-0.1-31.5,20.4-59.4,50.5-68.7l21.5-6.7v48.6c0,22.1,17.9,40,40,40h80c11.2,0,21.8-4.7,29.3-13c0.2,18.8,7.8,36.7,21.1,50
		c3.1,3.1,8.2,3.1,11.3,0c1-1,1.7-2.2,2.1-3.6l11-41l26.3-5.4l20.1,17.8l-11,41c-1.1,4.3,1.4,8.7,5.7,9.8c0.7,0.2,1.4,0.3,2.1,0.3
		c0.7,0,1.4-0.1,2-0.3c38.4-10.2,61.2-49.6,50.9-88c-2.9-10.7-8.1-20.6-15.5-28.9l35.3-131.7c37.6-12.7,57.8-53.5,45.1-91.1
		C3694.3,110.7,3688.3,101.2,3680.5,93.3z M3531.9,326.8c-12.3,6-22.7,15.4-29.8,27.1v-37.2l21.4,6.7
		C3526.4,324.4,3529.2,325.5,3531.9,326.8z M3462.6,304.4l-6.2,32.2l-21.4-12.8l21.3-21.3L3462.6,304.4z M3344.5,123.3
		c-3.5,0.6-7-1.1-8.6-4.3l-0.8-1.6c-2-4-0.4-8.8,3.6-10.7c0.7-0.4,1.5-0.6,2.4-0.8l70.1-10.8c7.3-1.1,14.6-1.1,21.9,0l70.1,10.8
		c4.4,0.7,7.4,4.8,6.7,9.1c-0.1,0.8-0.4,1.6-0.7,2.4l-0.8,1.6c-1.6,3.2-5.1,4.9-8.6,4.3l-64.8-11.8c-8.5-1.6-17.2-1.6-25.7,0
		L3344.5,123.3z M3510.1,157.3v-16c4.4,0,8,3.6,8,8S3514.5,157.3,3510.1,157.3z M3494.1,50.5v37.9l-20.6-3.2l8.7-43.6l5.4,1.1
		C3491.4,43.3,3494.1,46.6,3494.1,50.5z M3411,31.7c7.3-1.4,14.8-1.4,22,0l33.5,6.7l-8.9,44.3l-22.2-3.4c-8.9-1.4-17.9-1.4-26.8,0
		l-22.2,3.4l-8.9-44.4L3411,31.7z M3356.6,42.6l5.4-1.1l8.7,43.6l-20.6,3.2V50.5C3350.1,46.6,3352.8,43.4,3356.6,42.6z
		 M3326.1,149.3c0-4.4,3.6-8,8-8v16C3329.7,157.3,3326.1,153.8,3326.1,149.3z M3350.1,181.3v-42.8l62-11.3c6.6-1.2,13.4-1.2,20,0
		l62,11.3v42.8c0,39.8-32.2,72-72,72S3350.1,221.1,3350.1,181.3z M3422.1,269.3c8.1,0,16.2-1.1,24-3.4V290l-24,24l-24-24v-24.1
		C3405.9,268.2,3414,269.3,3422.1,269.3z M3387.9,302.4l21.3,21.3l-21.4,12.8l-6.2-32.2L3387.9,302.4z M3462.1,389.3h-80
		c-13.3,0-24-10.7-24-24v-53.6l8.2-2.6l8,41.7c0.8,4.3,5,7.2,9.4,6.4c0.9-0.2,1.8-0.5,2.6-1l35.8-21.5l35.9,21.5
		c3.8,2.3,8.7,1.1,11-2.7c0.5-0.8,0.8-1.7,1-2.6l8-41.7l8.1,2.6v53.6C3486.1,378.6,3475.3,389.3,3462.1,389.3z M3683.7,158.7
		c-5.2,19.3-20.3,34.4-39.6,39.6c-2.8,0.7-4.9,2.9-5.6,5.7l-37.6,140.3c-0.7,2.8,0,5.7,2.1,7.7c21.9,21.8,21.9,57.2,0.1,79.1
		c-3.3,3.3-7.1,6.3-11.2,8.7l8.1-30.1c0.8-2.9-0.1-6-2.4-8.1l-26.8-23.7c-1.5-1.3-3.3-2-5.3-2c-0.5,0-1.1,0.1-1.6,0.2l-35,7.2
		c-3,0.6-5.3,2.8-6.1,5.8l-8.1,30.1c-15.2-26.9-5.7-61,21.2-76.2c4.1-2.3,8.5-4.1,13.1-5.3c2.8-0.7,4.9-2.9,5.6-5.7l37.6-140.3
		c0.7-2.8,0-5.7-2.1-7.7c-21.9-21.8-21.9-57.2-0.1-79.1c3.3-3.3,7.1-6.2,11.1-8.6l-8.1,30.1c-0.8,2.9,0.1,6,2.4,8l26.8,23.7
		c1.9,1.7,4.4,2.4,6.9,1.9l35.1-7.2c3-0.6,5.3-2.8,6.1-5.8l8.1-30.1C3685.5,129.5,3687.5,144.6,3683.7,158.7z"/>
</g>
<g>
	<g>
		<path class="st1" d="M4484.5,93.8c0-0.1,0-0.1,0-0.2c0-0.2,0-0.4,0-0.7c0-0.1,0-0.2,0-0.2c0-0.2-0.1-0.4-0.1-0.6
			c0-0.1,0-0.2-0.1-0.2c-0.1-0.2-0.1-0.4-0.2-0.6v-0.1l-20.3-52.1c-2.1-5.2-7-8.6-12.7-8.6h-37c-4,0-7.3,3.3-7.3,7.3
			s3.3,7.3,7.3,7.3h36.3l16.2,41.4h-153.1l-9.6-41.4h56.5c4,0,7.3-3.3,7.3-7.3s-3.3-7.3-7.3-7.3h-65.7H4221h-156.4
			c-5.6,0-10.6,3.4-12.7,8.6l-20.3,52.1v0.1c-0.1,0.2-0.1,0.4-0.2,0.6c0,0.1,0,0.2-0.1,0.2c0,0.2-0.1,0.4-0.1,0.6c0,0.1,0,0.2,0,0.2
			c0,0.2,0,0.4,0,0.7c0,0.1,0,0.1,0,0.2l0,0v107.4c0,4,3.3,7.3,7.3,7.3s7.3-3.3,7.3-7.3V101.1h155v111.1c0,4.3,2.6,8.3,6.5,10.1
			c1.5,0.7,3,1,4.5,1c2.7,0,5.3-1,7.3-2.8l38.7-34.3l38.7,34.3c3.3,2.9,7.9,3.6,11.9,1.8s6.5-5.7,6.5-10.1V101.1h155V429
			c0,5.2-4.3,9.5-9.5,9.5h-134.1c0-0.1,0-0.2,0-0.2c0-0.7,0-1.3-0.1-2c12.6,3.3,26-3.1,31.1-15.5c2.7-6.5,2.6-13.7-0.1-20.1
			c-0.3-0.6-0.5-1.2-0.8-1.8c-0.1-0.1-0.1-0.2-0.2-0.3c-0.3-0.6-0.6-1.1-0.9-1.6c-0.1-0.1-0.1-0.2-0.2-0.3c-0.3-0.5-0.7-1.1-1.1-1.6
			l0,0c-0.4-0.5-0.8-1-1.2-1.5c-0.1-0.1-0.2-0.2-0.2-0.3c-0.4-0.5-0.8-0.9-1.3-1.3c-0.1-0.1-0.2-0.2-0.3-0.2
			c-0.5-0.4-0.9-0.9-1.4-1.3c0,0,0,0-0.1,0c-0.5-0.4-1-0.8-1.5-1.1c-0.1-0.1-0.2-0.1-0.3-0.2c-0.5-0.3-1-0.7-1.6-1l-0.1-0.1
			c3.1-2.7,5.5-6.1,7.1-10c2.7-6.5,2.6-13.7-0.1-20.1c-2.4-5.7-6.6-10.2-11.9-13.1c-0.8-0.4-1.6-0.8-2.4-1.1l-113.8-46.4l53-16.4
			c12.6-3.9,19.7-17.3,15.8-30c-1.4-4.7-4.3-8.7-8-11.6c-5.5-4.3-12.9-6.3-20.2-4.7h-0.1c-0.4,0.1-41,9.2-83.4,17.5
			c-1.9,0.4-3.7,0.7-5.5,1.1c-1.4,0.3-2.9,0.6-4.3,0.8c-0.4,0.1-0.8,0.2-1.2,0.2c-2.5,0.5-4.9,0.9-7.2,1.4c-0.9,0.2-1.9,0.3-2.8,0.5
			c-53.3,9.8-68.2,10-72.4,9.4l0,0c-0.1,0-0.1,0-0.2,0h-0.1h-0.1c-0.3,0-0.5-0.1-0.6-0.1l-1.2-0.5l1.5-3.7c1.5-3.6,1.4-7.6-0.1-11.1
			c-0.4-0.9-0.8-1.7-1.4-2.5c-1.6-2.4-3.9-4.2-6.6-5.3l-39.3-16c-3.6-1.5-7.6-1.4-11.1,0.1c-3.6,1.5-6.4,4.3-7.8,7.9l-48,117.8
			c-3,7.4,0.6,15.9,8,19l39.3,16c1.8,0.7,3.6,1.1,5.5,1.1c5.7,0,11.2-3.4,13.5-9.1l0.4-0.9l9.1,3.7l0,0c8.7,3.5,16.6,8.6,23.5,14.8
			c1.3,1.1,2.5,2.3,3.7,3.5s2.3,2.5,3.4,3.8c0.6,0.6,1.1,1.3,1.6,2c10.1,12.5,23.3,22.4,38.1,28.5l10.2,4.2h-74.6
			c-5.2,0-9.5-4.3-9.5-9.5v-18.5c0-4-3.3-7.3-7.3-7.3s-7.3,3.3-7.3,7.3v18.5c0,13.3,10.8,24.1,24.1,24.1h110.5l94.2,38.4
			c3.2,1.3,6.6,1.9,9.9,1.9c10.4,0,20.2-6.2,24.4-16.4c1.7-4.2,2.3-8.5,1.8-12.7c4.9,0.7,10,0.1,14.6-1.9c4.7-2,8.6-5.2,11.3-9.3
			h138.5c13.3,0,24.1-10.8,24.1-24.1L4484.5,93.8L4484.5,93.8z M4226.8,45.1h62l9.6,41.4h-81.2L4226.8,45.1z M4202.2,86.5h-153.1
			l16.2-41.4h146.5L4202.2,86.5z M4300.3,204.4L4300.3,204.4l-35.2-31.1c-2.1-1.9-4.7-2.8-7.3-2.8c-2.6,0-5.2,0.9-7.3,2.8
			l-35.2,31.1V101.1h85V204.4z M4026.3,373.5l-39.1-16l48-117.6l39.1,16L4026.3,373.5z M4318.4,417.6l-8.4-3.4l0,0l0,0l0,0
			l-87.4-35.6c-3.7-1.5-8,0.3-9.5,4s0.3,8,4,9.5l87.4,35.6c0.4,0.1,0.7,0.3,1.1,0.5c0.1,0.1,0.2,0.1,0.3,0.2
			c0.2,0.1,0.5,0.3,0.7,0.4c0.1,0.1,0.2,0.2,0.3,0.2c0.2,0.1,0.4,0.3,0.6,0.4c0.1,0.1,0.2,0.2,0.3,0.3c0.2,0.2,0.3,0.3,0.5,0.5
			c0.1,0.1,0.2,0.2,0.3,0.3c0.1,0.2,0.3,0.3,0.4,0.5c0.1,0.1,0.2,0.3,0.3,0.4c0.1,0.2,0.3,0.3,0.4,0.5c0.1,0.1,0.2,0.3,0.3,0.4
			c0.1,0.2,0.2,0.3,0.3,0.5c0.1,0.2,0.2,0.3,0.2,0.5c0.1,0.2,0.2,0.3,0.3,0.5c0.1,0.2,0.1,0.3,0.2,0.5s0.1,0.3,0.2,0.5
			s0.1,0.4,0.2,0.5c0,0.2,0.1,0.4,0.1,0.5c0,0.2,0.1,0.4,0.1,0.5c0,0.2,0.1,0.4,0.1,0.5s0,0.4,0,0.6s0,0.4,0,0.6s0,0.4,0,0.6
			s0,0.4,0,0.6s0,0.4-0.1,0.5c0,0.2,0,0.4-0.1,0.6c0,0.2-0.1,0.4-0.1,0.5c0,0.2-0.1,0.4-0.1,0.6s-0.1,0.3-0.2,0.5s-0.1,0.4-0.2,0.6
			c-0.1,0.1-0.1,0.3-0.2,0.4v0.1c-1.1,2.6-3.3,4.7-6,5.9c-3,1.3-6.5,1.4-9.5,0.1l-15.5-6.3c-0.1,0-0.1,0-0.2-0.1
			c-0.1,0-0.1-0.1-0.2-0.1l-71.1-29c-3.7-1.5-8,0.3-9.5,4s0.3,8,4,9.5l71.1,29c0.1,0,0.2,0.1,0.2,0.1c0.1,0,0.1,0.1,0.2,0.1
			c6,2.4,8.8,9.3,6.4,15.2c-2.4,6-9.3,8.8-15.2,6.4l-95.5-38.9l0,0l-44.7-18.2c-7.9-3.2-15.2-7.7-21.6-13.1
			c-3.9-3.3-7.4-6.9-10.6-10.9c-3.1-3.9-6.6-7.6-10.3-10.9c-8.2-7.4-17.6-13.4-27.8-17.5l0,0l-9.1-3.7l18.1-44.3l17.1-41.8l1.3,0.5
			c1.2,0.5,2.9,1.2,7.4,1.3c5.7,0.3,15.1-0.3,31.9-2.7c11.5-1.6,25.5-4,41.9-7c0.4-0.1,0.8-0.1,1.2-0.2c0.8-0.1,1.5-0.3,2.3-0.4
			c0.6-0.1,1.2-0.2,1.8-0.3c0.7-0.1,1.4-0.3,2.1-0.4s1.5-0.3,2.3-0.4c0.6-0.1,1.2-0.2,1.8-0.3c0.9-0.2,1.9-0.4,2.8-0.5
			c0.5-0.1,1-0.2,1.5-0.3c1.5-0.3,2.9-0.6,4.4-0.9c42.3-8.2,83.1-17.4,84.9-17.8c0.2,0,0.4-0.1,0.5-0.1c4.7-0.7,9.3,2,10.6,6.4
			c0.5,1.5,0.5,3.1,0.2,4.6c-0.7,3.3-3,6.1-6.4,7.1l-72.5,22.4c-3,0.9-5,3.6-5.1,6.7s1.7,5.9,4.5,7.1l132.7,54.1
			c2.9,1.2,5.1,3.4,6.4,6.3c1.2,2.9,1.2,6.1,0,8.9c-1.2,2.9-3.4,5.1-6.3,6.4c-1.4,0.6-3,0.9-4.5,0.9c0,0,0,0-0.1,0
			c-0.4,0-0.7,0-1.1,0c-0.1,0-0.2,0-0.3,0c-0.3,0-0.5-0.1-0.8-0.1c-0.2,0-0.3-0.1-0.5-0.1s-0.4-0.1-0.6-0.1
			c-0.2-0.1-0.4-0.1-0.6-0.2s-0.3-0.1-0.5-0.2l-87.4-35.6c-3.7-1.5-8,0.3-9.5,4s0.3,8,4,9.5l106,43.2c0.7,0.3,1.4,0.7,2,1.1
			c1.9,1.3,3.4,3.1,4.3,5.2c1.1,2.5,1.2,5.3,0.4,7.8c-0.1,0.4-0.2,0.7-0.4,1.1c-0.2,0.4-0.3,0.7-0.5,1.1c-0.4,0.8-1,1.5-1.5,2.2
			c-0.4,0.4-0.8,0.8-1.2,1.2c-0.1,0.1-0.1,0.1-0.2,0.2c-2.7,2.2-6.2,3.1-9.7,2.4c-0.7-0.1-1.4-0.3-2.1-0.6L4318.4,417.6z"/>
	</g>
</g>
<g>
	<g>
		<path class="st0" d="M94.1,624.6h15.1l13.7,32.4l5.6,14.3h0.3c-0.7-6.9-2-16-2-23.7v-23h14.1v65.2h-15.1L112,657.3l-5.6-14.3h-0.3
			c0.7,7.2,2,15.9,2,23.6v23.1H94.1V624.6z"/>
		<path class="st0" d="M154.7,619.7h14.7v17.1l-0.9,9.6h0.4c3.7-3.8,9-7.4,16.4-7.4c11.1,0,16.1,7.7,16.1,20.2v30.6h-14.7V661
			c0-6.6-1.9-9.5-7.3-9.5c-3.9,0-6.6,1.8-10,5.2v33.1h-14.7V619.7z"/>
		<path class="st0" d="M213.6,676c0-11.1,9.2-16.8,32.6-18.2c-0.5-4.4-3.9-7.2-10.5-7.2c-4.8,0-9.5,1.8-15.1,4.6l-5.2-9.6
			c6.9-3.9,14.8-6.7,23.2-6.7c14,0,22.4,7.3,22.4,22.5v28.4h-12l-1.1-5.6h-0.4c-5,3.8-11.2,6.8-17.6,6.8
			C219.9,690.9,213.6,684.3,213.6,676z M221.1,628.4l10.8-13.1h15l10.8,13.1l-5.6,5.2l-12.5-9.2h-0.4l-12.5,9.2L221.1,628.4z
			 M227.7,705.4c0-5.4,4.1-9.1,9.8-9.1s9.8,3.8,9.8,9.1c0,5.4-4.1,9-9.8,9S227.7,710.8,227.7,705.4z M246.2,674.8v-8.1
			c-14.6,0.7-18.5,3.9-18.5,8.1c0,3.2,2.7,4.7,6.8,4.7C239,679.6,242.7,677.5,246.2,674.8z"/>
		<path class="st0" d="M274.7,640.1h12l1.1,6.6h0.4c4.3-4.2,9.8-7.8,17.1-7.8c11.2,0,16.2,7.7,16.2,20.2v30.6h-14.7V661
			c0-6.6-1.9-9.5-7.3-9.5c-3.9,0-6.6,1.8-10,5.2v33.1h-14.7V640.1z"/>
		<path class="st0" d="M394.7,619.7h14.7v17.1l-0.9,9.6h0.4c3.7-3.8,9-7.4,16.4-7.4c11.1,0,16.1,7.7,16.1,20.2v30.6h-14.7V661
			c0-6.6-1.9-9.5-7.3-9.5c-3.9,0-6.6,1.8-10,5.2v33.1h-14.7V619.7z"/>
		<path class="st0" d="M453.6,676c0-11.1,9.2-16.8,32.6-18.2c-0.5-4.4-3.9-7.2-10.5-7.2c-4.8,0-9.5,1.8-15.1,4.6l-5.2-9.6
			c6.9-3.9,14.8-6.7,23.2-6.7c14,0,22.4,7.3,22.4,22.5v28.4h-12l-1.1-5.6h-0.4c-5,3.8-11.2,6.8-17.6,6.8
			C459.8,690.9,453.6,684.3,453.6,676z M462,618l10-9.8l15.4,18.2l-7.3,7.2L462,618z M486.2,674.8v-8.1c-14.6,0.7-18.5,3.9-18.5,8.1
			c0,3.2,2.7,4.7,6.8,4.7C479,679.6,482.7,677.5,486.2,674.8z"/>
		<path class="st0" d="M514.7,640.1h12l1.1,6.6h0.4c4.3-4.2,9.8-7.8,17.1-7.8c11.2,0,16.2,7.7,16.2,20.2v30.6h-14.7V661
			c0-6.6-1.9-9.5-7.3-9.5c-3.9,0-6.6,1.8-10,5.2v33.1h-14.7V640.1z"/>
		<path class="st0" d="M572.6,698.1c0-4,2.7-7.4,7.7-9.9v-0.4c-2.7-1.7-5-4.3-5-8.4c0-3.3,2.4-6.9,5.9-9.3v-0.4
			c-3.7-2.4-6.6-6.9-6.6-12.7c0-11.9,10-18,21.3-18c2.9,0,5.8,0.4,8.1,1.2h20.2v10.8h-10c1.1,1.5,2.2,4,2.2,6.5
			c0,11.4-9,16.6-20.5,16.6c-2,0-4.3-0.3-6.8-1c-1.5,1.1-2.2,2-2.2,3.7c0,2.6,2.6,3.7,8.4,3.7h9.2c13,0,20.2,3.6,20.2,12.6
			c0,10.3-11.5,17.9-29.6,17.9C582.2,710.8,572.6,707,572.6,698.1z M610.7,695.5c0-3.2-3.1-3.8-8.7-3.8h-6.3c-3.6,0-5.7-0.2-7.5-0.7
			c-2.5,1.6-3.5,3.1-3.5,4.9c0,3.7,4.9,5.6,12.6,5.6C605.2,701.5,610.7,698.9,610.7,695.5z M603.5,656.9c0-5.2-3.4-8.1-7.5-8.1
			c-4.1,0-7.4,2.9-7.4,8.1c0,5.4,3.4,8.3,7.4,8.3C600.1,665.2,603.5,662.3,603.5,656.9z"/>
	</g>
</g>
<g>
	<g>
		<path class="st0" d="M886.6,659.9h-7V653l7-0.6v-27.9h18.1c18.8,0,31.3,9.9,31.3,32.3c0,22.4-12.5,32.9-30.4,32.9h-18.9V659.9z
			 M903.8,677.9c10.1,0,17-5.4,17-21c0-15.6-7-20.4-17-20.4h-2.5v16h10.8v7.5h-10.8v18H903.8z"/>
		<path class="st0" d="M945.7,676c0-11.1,9.2-16.8,32.6-18.2c-0.5-4.4-3.9-7.2-10.5-7.2c-4.8,0-9.5,1.8-15.1,4.6l-5.2-9.6
			c6.9-3.9,14.8-6.7,23.2-6.7c14,0,22.4,7.3,22.4,22.5v28.4h-12l-1.1-5.6h-0.4c-5,3.8-11.2,6.8-17.6,6.8
			C952,690.9,945.7,684.3,945.7,676z M978.4,674.8v-8.1c-14.6,0.7-18.5,3.9-18.5,8.1c0,3.2,2.7,4.7,6.8,4.7
			C971.1,679.6,974.9,677.5,978.4,674.8z"/>
		<path class="st0" d="M1006.8,640.1h12l1.1,6.6h0.4c4.3-4.2,9.8-7.8,17.1-7.8c11.2,0,16.2,7.7,16.2,20.2v30.6h-14.7V661
			c0-6.6-1.9-9.5-7.3-9.5c-3.9,0-6.6,1.8-10,5.2v33.1h-14.7V640.1z"/>
		<path class="st0" d="M1064.8,698.1c0-4,2.7-7.4,7.7-9.9v-0.4c-2.7-1.7-5-4.3-5-8.4c0-3.3,2.4-6.9,5.9-9.3v-0.4
			c-3.7-2.4-6.6-6.9-6.6-12.7c0-11.9,10-18,21.3-18c2.9,0,5.8,0.4,8.1,1.2h20.2v10.8h-10c1.1,1.5,2.2,4,2.2,6.5
			c0,11.4-9,16.6-20.5,16.6c-2,0-4.3-0.3-6.8-1c-1.5,1.1-2.2,2-2.2,3.7c0,2.6,2.6,3.7,8.4,3.7h9.2c13,0,20.2,3.6,20.2,12.6
			c0,10.3-11.5,17.9-29.6,17.9C1074.4,710.8,1064.8,707,1064.8,698.1z M1102.8,695.5c0-3.2-3.1-3.8-8.7-3.8h-6.3
			c-3.6,0-5.7-0.2-7.5-0.7c-2.5,1.6-3.5,3.1-3.5,4.9c0,3.7,4.9,5.6,12.6,5.6C1097.4,701.5,1102.8,698.9,1102.8,695.5z M1095.6,656.9
			c0-5.2-3.4-8.1-7.5-8.1c-4.1,0-7.4,2.9-7.4,8.1c0,5.4,3.4,8.3,7.4,8.3C1092.2,665.2,1095.6,662.3,1095.6,656.9z"/>
		<path class="st0" d="M1187.1,619.7h14.7v40.4h0.4l18.2-19.9h16.1l-34.7,37.1v12.5h-14.7V619.7z M1207.8,667.3l8.5-9.2l21.9,31.6
			h-16L1207.8,667.3z"/>
		<path class="st0" d="M1267.4,651.7h-20v-11.5h34.7v49.6h-14.7V651.7z M1264.3,623.4c0-5.4,4.1-9.1,9.8-9.1s9.8,3.8,9.8,9.1
			c0,5.4-4.1,9-9.8,9S1264.3,628.8,1264.3,623.4z"/>
		<path class="st0" d="M1305.1,664.9c0-16.2,12.5-26,25.8-26c15.3,0,23.4,10.3,23.4,23.8c0,2.7-0.4,5.4-0.6,6.6H1316v-9.9h27.7
			l-2.3,2.8c0-8-3.5-12.2-10-12.2c-7.3,0-12,4.9-12,14.8c0,10.3,5.6,14.8,15.2,14.8c4.5,0,8.4-1.2,12.8-3.4l4.9,8.9
			c-5.7,3.6-13,5.8-19.7,5.8C1317.1,690.9,1305.1,681.4,1305.1,664.9z M1315.6,627.9l9.3-9.2h11.7l9.3,9.2l-4.7,5.3l-10.2-6.5h-0.4
			l-10.2,6.5L1315.6,627.9z M1343.6,620.3c1.9-0.4,3-1.1,3-2.8c0-1.9-1.5-3-6.5-3.3l1.4-6.2c11,0.4,14.8,3.3,14.8,8
			c0,6.5-5.3,8.5-11.7,9.4L1343.6,620.3z"/>
		<path class="st0" d="M1363.1,640.1h11.1l1.1,6.1h0.3c1.9-4,5-7.3,10.7-7.3c4.3,0,7.4,2.8,8.6,8.1c1.8-4.5,5.3-8.1,11-8.1
			c7.1,0,11.1,6.1,11.1,16v34.8h-14V656c0-3.1-0.7-4.5-2.7-4.5c-1.9,0-3.2,1.6-4.6,4.8v33.5h-11.5V656c0-3.1-0.9-4.5-2.8-4.5
			c-1.8,0-3.1,1.6-4.4,4.8v33.5h-14V640.1z"/>
		<path class="st0" d="M1077,789.2v-17.5h-12.5v-11l13.2-0.6l1.9-15.2h12.2v15.2h20.9v11.5h-20.9V789c0,7.5,3.2,10.4,10.4,10.4
			c3.7,0,6.9-0.8,9.8-1.8l2.7,10.6c-4.4,1.3-9.6,2.7-16.2,2.7C1082.6,810.9,1077,802.2,1077,789.2z"/>
		<path class="st0" d="M1131.1,760.1h12.1l1.2,10.9h0.3c4.9-8.1,12.2-12.1,20.1-12.1c4.3,0,6.7,0.7,9.5,2l-3,12.4
			c-3.1-1-5.1-1.5-8.8-1.5c-6.1,0-12.5,3.2-16.8,12.1v25.8h-14.7V760.1z"/>
		<path class="st0" d="M1185.7,796c0-11.1,9.2-16.8,32.6-18.2c-0.5-4.4-3.9-7.2-10.5-7.2c-4.8,0-9.5,1.8-15.1,4.6l-5.2-9.6
			c6.9-3.9,14.8-6.7,23.2-6.7c14,0,22.4,7.3,22.4,22.5v28.4h-12l-1.1-5.6h-0.4c-5,3.8-11.2,6.8-17.6,6.8
			C1192,810.9,1185.7,804.3,1185.7,796z M1218.4,794.8v-8.1c-14.6,0.7-18.5,3.9-18.5,8.1c0,3.2,2.7,4.7,6.8,4.7
			C1211.1,799.6,1214.9,797.5,1218.4,794.8z"/>
	</g>
</g>
</svg>
